# xmcd CD database file
#
# Track frame offsets:
#	150
#	13845
#	31735
#	47762
#	69795
#	77650
#	97292
#	111337
#	133042
#	144807
#	166085
#	171350
#	191340
#	204382
#
# Disc length: 2989 seconds
#
# Revision: 0
# Processed by: cddbd v1.5.1PL2 Copyright (c) Steve Scherf et al.
# Submitted via: CDex 1.51
#
DISCID=b50bab0e
DTITLE=バナナフリッターズ - バナナフリッターズ
DYEAR=1991
DGENRE=Pop
TTITLE0=BANANA FRITTERS - Opening Theme -
TTITLE1=ドラマ <SCENE 1>
TTITLE2=ドラマ <SCENE 2>
TTITLE3=素敵なトライアングル
TTITLE4=ドラマ <SCENE 3>
TTITLE5=ある晴れた午後突然に
TTITLE6=ドラマ <SCENE 4>
TTITLE7=ボニーとクライドのように
TTITLE8=ドラマ <SCENE 5>
TTITLE9=ロンリー・パントマイム
TTITLE10=ドラマ <SCENE 6>
TTITLE11=グッバイ・マイ・ボーイ
TTITLE12=ドラマ <SCENE 7>
TTITLE13=さよなら夏の光たち
EXTD=YEAR: 1991
EXTT0=
EXTT1=
EXTT2=
EXTT3=
EXTT4=
EXTT5=
EXTT6=
EXTT7=
EXTT8=
EXTT9=
EXTT10=
EXTT11=
EXTT12=
EXTT13=
PLAYORDER=
